<mxfile host="app.diagrams.net" modified="2024-02-25T03:48:46.788Z" agent="Mozilla/5.0 (Windows NT 10.0; Win64; x64) AppleWebKit/537.36 (KHTML, like Gecko) Chrome/121.0.0.0 Safari/537.36 OPR/107.0.0.0" version="23.1.6" etag="9bA_NTk2vSlcWtPekCwx" type="github">
  <diagram name="Halaman-1" id="06rqoGemEGUVsre8XoqF">
    <mxGraphModel>
      <root>
        <mxCell id="0" />
        <mxCell id="1" parent="0" />
      </root>
    </mxGraphModel>
  </diagram>
</mxfile>
